# xmcd CD database file
#
# Track frame offsets:
#	150
#	12683
#	22011
#	33503
#	47101
#	57037
#	67666
#	87555
#	103247
#	115330
#	127833
#	153053
#
# Disc length: 2195 seconds
#
# Revision: 0
# Processed by: cddbd v1.5PL3 Copyright (c) Steve Scherf et al.
# Submitted via: CDex 1.51
#
DISCID=9808910c
DTITLE=Klapa Primosten - Primostensko Plavo More
DYEAR=2003
DGENRE=Country
TTITLE0=Vela Luka
TTITLE1=Falile Se Kastelanke
TTITLE2=Biseru Juznog Mora
TTITLE3=Ta Divna Splitska Noc
TTITLE4=Ciribiribela Mare Moja
TTITLE5=Primostensko Plavo More
TTITLE6=Marijana
TTITLE7=Kad Si Bila Mala Mare
TTITLE8=Pozdravi Vse
TTITLE9=Klakar
TTITLE10=Mix
TTITLE11=Dodi U Krilo Moje
EXTD=YEAR: 2003
EXTT0=
EXTT1=
EXTT2=
EXTT3=
EXTT4=
EXTT5=
EXTT6=
EXTT7=
EXTT8=
EXTT9=
EXTT10=
EXTT11=
PLAYORDER=
